# Blender 3.5.1
# www.blender.org
mtllib Billboard.mtl
o IMG_1524
v 0.336789 1.970216 4.000000
v 0.336789 1.970216 -4.000000
v 0.336789 7.970216 4.000000
v 0.336789 7.970216 -4.000000
v -0.300000 0.000000 -2.700000
v -0.300000 6.000000 -2.700000
v -0.300000 0.000000 -3.300000
v -0.300000 6.000000 -3.300000
v 0.300000 0.000000 -2.700000
v 0.300000 6.000000 -2.700000
v 0.300000 0.000000 -3.300000
v 0.300000 6.000000 -3.300000
v -0.300000 0.000000 3.300000
v -0.300000 6.000000 3.300000
v -0.300000 0.000000 2.700001
v -0.300000 6.000000 2.700001
v 0.300000 0.000000 3.300000
v 0.300000 6.000000 3.300000
v 0.300000 0.000000 2.700001
v 0.300000 6.000000 2.700001
v 0.330000 2.000000 4.000000
v 0.330000 2.000000 -4.000000
v 0.330000 8.000000 4.000000
v 0.330000 8.000000 -4.000000
v 0.230000 2.000000 4.100001
v 0.230000 8.000000 4.100001
v 0.230000 2.000000 3.900001
v 0.230000 8.000000 3.900001
v 0.430000 2.000000 4.100001
v 0.430000 8.000000 4.100001
v 0.430000 2.000000 3.900001
v 0.430000 8.000000 3.900001
v 0.230000 1.900000 -4.100000
v 0.230000 1.900000 4.100001
v 0.230000 2.100000 -4.100000
v 0.230000 2.100000 4.100001
v 0.430000 1.900000 -4.100000
v 0.430000 1.900000 4.100001
v 0.430000 2.100000 -4.100000
v 0.430000 2.100000 4.100001
v 0.230000 2.000000 -3.900000
v 0.230000 8.000000 -3.900000
v 0.230000 2.000000 -4.100000
v 0.230000 8.000000 -4.100000
v 0.430000 2.000000 -3.900000
v 0.430000 8.000000 -3.900000
v 0.430000 2.000000 -4.100000
v 0.430000 8.000000 -4.100000
v 0.039576 2.000000 -4.100000
v 0.039576 2.000000 4.100001
v 0.039576 8.000000 -4.100000
v 0.039576 8.000000 4.100001
v 0.239576 2.000000 -4.100000
v 0.239576 2.000000 4.100001
v 0.239576 8.000000 -4.100000
v 0.239576 8.000000 4.100001
v 0.230000 7.900000 -4.100000
v 0.230000 7.900000 4.100001
v 0.230000 8.100000 -4.100000
v 0.230000 8.100000 4.100001
v 0.430000 7.900000 -4.100000
v 0.430000 7.900000 4.100001
v 0.430000 8.100000 -4.100000
v 0.430000 8.100000 4.100001
vn 1.0000 -0.0000 -0.0000
vn -1.0000 -0.0000 -0.0000
vn -0.0000 -0.0000 -1.0000
vn -0.0000 -0.0000 1.0000
vn -0.0000 -1.0000 -0.0000
vn -0.0000 1.0000 -0.0000
vt 0.000000 0.000000
vt 1.000000 0.000000
vt 0.000000 1.000000
vt 1.000000 1.000000
vt 0.093891 0.150336
vt 0.093891 0.112840
vt 0.103265 0.122214
vt 0.084517 0.150336
vt 0.084517 0.112840
vt 0.075143 0.122214
vt 0.093891 0.140962
vt 0.103265 0.131588
vt 0.084517 0.140962
vt 0.075143 0.131588
vt 0.093891 0.122214
vt 0.084517 0.122214
vt 0.093891 0.131588
vt 0.084517 0.131588
vt 0.093891 0.037546
vt 0.093891 0.000050
vt 0.103265 0.009424
vt 0.084517 0.037546
vt 0.084517 0.000050
vt 0.075143 0.009424
vt 0.093891 0.028172
vt 0.103265 0.018798
vt 0.084517 0.028172
vt 0.075143 0.018798
vt 0.093891 0.009424
vt 0.084517 0.009424
vt 0.093891 0.018798
vt 0.084517 0.018798
vt 0.075043 0.000050
vt 0.075043 0.999950
vt 0.000050 0.000050
vt 0.000050 0.999950
vt 0.093891 0.075143
vt 0.093891 0.037647
vt 0.103265 0.047021
vt 0.084517 0.075143
vt 0.084517 0.037647
vt 0.075143 0.047021
vt 0.093891 0.065769
vt 0.103265 0.056395
vt 0.084517 0.065769
vt 0.075143 0.056395
vt 0.093891 0.047021
vt 0.084517 0.047021
vt 0.093891 0.056395
vt 0.084517 0.056395
vt 0.093891 0.112739
vt 0.093891 0.075243
vt 0.103265 0.084617
vt 0.084517 0.112739
vt 0.084517 0.075243
vt 0.075143 0.084617
vt 0.093891 0.103365
vt 0.103265 0.093991
vt 0.084517 0.103365
vt 0.075143 0.093991
vt 0.093891 0.084617
vt 0.084517 0.084617
vt 0.093891 0.093991
vt 0.084517 0.093991
vt 0.122113 0.037546
vt 0.122113 0.000050
vt 0.131487 0.009424
vt 0.112739 0.037546
vt 0.112739 0.000050
vt 0.103365 0.009424
vt 0.122113 0.028172
vt 0.131487 0.018798
vt 0.112739 0.028172
vt 0.103365 0.018798
vt 0.122113 0.009424
vt 0.112739 0.009424
vt 0.122113 0.018798
vt 0.112739 0.018798
vt 0.122113 0.075143
vt 0.122113 0.037647
vt 0.131487 0.047021
vt 0.112739 0.075143
vt 0.112739 0.037647
vt 0.103365 0.047021
vt 0.122113 0.065769
vt 0.131487 0.056395
vt 0.112739 0.065769
vt 0.103365 0.056395
vt 0.122113 0.047021
vt 0.112739 0.047021
vt 0.122113 0.056395
vt 0.112739 0.056395
vt 0.122113 0.112739
vt 0.122113 0.075243
vt 0.131487 0.084617
vt 0.112739 0.112739
vt 0.112739 0.075243
vt 0.103365 0.084617
vt 0.122113 0.103365
vt 0.131487 0.093991
vt 0.112739 0.103365
vt 0.103365 0.093991
vt 0.122113 0.084617
vt 0.112739 0.084617
vt 0.122113 0.093991
vt 0.112739 0.093991
s 0
usemtl IMG_1524
f 1/1/1 2/2/1 4/4/1 3/3/1
usemtl Material
f 5/5/2 6/8/2 8/13/2 7/11/2
f 7/11/3 8/13/3 12/18/3 11/17/3
f 11/17/1 12/18/1 10/16/1 9/15/1
f 9/15/4 10/16/4 6/9/4 5/6/4
f 7/12/5 11/17/5 9/15/5 5/7/5
f 12/18/6 8/14/6 6/10/6 10/16/6
f 13/19/2 14/22/2 16/27/2 15/25/2
f 15/25/3 16/27/3 20/32/3 19/31/3
f 19/31/1 20/32/1 18/30/1 17/29/1
f 17/29/4 18/30/4 14/23/4 13/20/4
f 15/26/5 19/31/5 17/29/5 13/21/5
f 20/32/6 16/28/6 14/24/6 18/30/6
f 21/33/1 22/34/1 24/36/1 23/35/1
f 25/37/2 26/40/2 28/45/2 27/43/2
f 27/43/3 28/45/3 32/50/3 31/49/3
f 31/49/1 32/50/1 30/48/1 29/47/1
f 29/47/4 30/48/4 26/41/4 25/38/4
f 27/44/5 31/49/5 29/47/5 25/39/5
f 32/50/6 28/46/6 26/42/6 30/48/6
f 33/51/2 34/54/2 36/59/2 35/57/2
f 35/57/6 36/59/6 40/64/6 39/63/6
f 39/63/1 40/64/1 38/62/1 37/61/1
f 37/61/5 38/62/5 34/55/5 33/52/5
f 35/58/3 39/63/3 37/61/3 33/53/3
f 40/64/4 36/60/4 34/56/4 38/62/4
f 41/65/2 42/68/2 44/73/2 43/71/2
f 43/71/3 44/73/3 48/78/3 47/77/3
f 47/77/1 48/78/1 46/76/1 45/75/1
f 45/75/4 46/76/4 42/69/4 41/66/4
f 43/72/5 47/77/5 45/75/5 41/67/5
f 48/78/6 44/74/6 42/70/6 46/76/6
f 49/79/2 50/82/2 52/87/2 51/85/2
f 51/85/6 52/87/6 56/92/6 55/91/6
f 55/91/1 56/92/1 54/90/1 53/89/1
f 53/89/5 54/90/5 50/83/5 49/80/5
f 51/86/3 55/91/3 53/89/3 49/81/3
f 56/92/4 52/88/4 50/84/4 54/90/4
f 57/93/2 58/96/2 60/101/2 59/99/2
f 59/99/6 60/101/6 64/106/6 63/105/6
f 63/105/1 64/106/1 62/104/1 61/103/1
f 61/103/5 62/104/5 58/97/5 57/94/5
f 59/100/3 63/105/3 61/103/3 57/95/3
f 64/106/4 60/102/4 58/98/4 62/104/4
