# Blender 3.5.1
# www.blender.org
mtllib Large Bin Lid.mtl
o Cube.001
v -0.893352 3.166634 1.885003
v -0.937383 3.166634 1.800945
v 1.037383 3.166634 1.800945
v 0.993352 3.166634 1.885003
v 0.993352 3.166634 -1.885003
v 1.037383 3.166634 -1.800945
v -0.937383 3.166634 -1.800945
v -0.893352 3.166634 -1.885003
v -0.902095 3.227944 1.773041
v -1.050000 3.144142 1.890000
v -0.878736 3.227944 1.817635
v -0.940000 3.144142 2.100000
v 0.849185 3.453341 1.817635
v 1.040000 3.144142 2.100000
v 0.872544 3.453341 1.773041
v 1.150000 3.144142 1.890000
v 0.872544 3.453341 -1.773041
v 1.150000 3.144142 -1.890000
v 0.849185 3.453341 -1.817635
v 1.040000 3.144142 -2.100000
v -0.878736 3.227944 -1.817635
v -0.940000 3.144142 -2.100000
v -0.902095 3.227944 -1.773041
v -1.050000 3.144142 -1.890000
v -1.050000 2.771034 1.890000
v -0.940000 2.771034 2.100000
v 1.040000 2.771034 2.100000
v 1.150000 2.771034 1.890000
v 1.150000 2.771034 -1.890000
v 1.040000 2.771034 -2.100000
v -0.940000 2.771034 -2.100000
v -1.050000 2.771034 -1.890000
v -0.975915 2.771034 1.831416
v -0.909313 2.771034 1.958565
v 1.009313 2.771034 1.958565
v 1.075915 2.771034 1.831416
v 1.075915 2.771034 -1.831416
v 1.009313 2.771034 -1.958565
v -0.909313 2.771034 -1.958565
v -0.975915 2.771034 -1.831416
vn 0.8858 -0.0000 -0.4640
vn 0.8858 -0.0000 0.4640
vn -0.0000 -1.0000 -0.0000
vn -1.0000 -0.0000 -0.0000
vn 1.0000 -0.0000 -0.0000
vn -0.0000 -0.0000 1.0000
vn -0.0000 -0.0000 -1.0000
vn -0.8858 -0.0000 0.4640
vn -0.8858 -0.0000 -0.4640
vn -0.3650 0.9111 0.1912
vn 0.6357 0.6964 0.3330
vn -0.0495 0.8144 0.5781
vn 0.6357 0.6964 -0.3330
vn 0.7443 0.6679 -0.0000
vn -0.3650 0.9111 -0.1912
vn -0.0495 0.8144 -0.5781
vn -0.4930 0.8701 -0.0000
vn -0.1260 0.9920 -0.0000
vn 0.8793 -0.1211 -0.4606
vn -0.8793 -0.1211 -0.4606
vn -0.0000 -0.1828 -0.9831
vn -0.8793 -0.1211 0.4606
vn -0.9953 -0.0969 -0.0000
vn 0.8793 -0.1211 0.4606
vn -0.0000 -0.1828 0.9831
vn 0.9953 -0.0969 -0.0000
vt 0.142801 0.737203
vt 0.137797 0.732199
vt 0.362203 0.732199
vt 0.357199 0.737203
vt 0.357199 0.512797
vt 0.362203 0.517801
vt 0.137797 0.517801
vt 0.142801 0.512797
vt 0.858193 0.730538
vt 0.608193 0.012500
vt 0.875000 0.737500
vt 0.855538 0.733192
vt 0.608193 0.987500
vt 0.608193 0.000000
vt 0.862500 0.750000
vt 0.644462 0.733193
vt 0.608193 0.762500
vt 0.637500 0.750000
vt 0.641807 0.730538
vt 0.625000 0.737500
vt 0.608193 0.737500
vt 0.641807 0.519462
vt 0.625000 0.512500
vt 0.608193 0.512500
vt 0.644462 0.516807
vt 0.608193 0.487500
vt 0.637500 0.500000
vt 0.855538 0.516807
vt 0.608193 0.262500
vt 0.862500 0.500000
vt 0.858193 0.519462
vt 0.608193 0.237500
vt 0.875000 0.512500
vt 0.375000 0.012500
vt 0.125000 0.737500
vt 0.375000 0.987500
vt 0.375000 0.000000
vt 0.137500 0.750000
vt 0.375000 0.762500
vt 0.362500 0.750000
vt 0.375000 0.737500
vt 0.375000 0.512500
vt 0.375000 0.487500
vt 0.362500 0.500000
vt 0.375000 0.262500
vt 0.137500 0.500000
vt 0.375000 0.237500
vt 0.125000 0.512500
vt 0.133419 0.734013
vt 0.140987 0.741581
vt 0.359013 0.741581
vt 0.366581 0.734013
vt 0.366581 0.515987
vt 0.359013 0.508419
vt 0.140987 0.508419
vt 0.133419 0.515987
s 0
usemtl Material.001
f 18/24/1 29/42/1 30/43/1 20/26/1
f 14/17/2 27/39/2 28/41/2 16/21/2
f 7/7/3 8/8/3 5/5/3 6/6/3 3/3/3 4/4/3 1/1/3 2/2/3
f 25/34/4 10/10/4 24/32/4 32/47/4
f 29/42/5 18/24/5 16/21/5 28/41/5
f 27/39/6 14/17/6 12/13/6 26/36/6
f 31/45/7 22/29/7 20/26/7 30/43/7
f 26/37/8 12/14/8 10/10/8 25/34/8
f 22/29/9 31/45/9 32/47/9 24/32/9
f 11/12/10 9/9/10 10/11/10 12/15/10
f 15/19/11 13/16/11 14/18/11 16/20/11
f 13/16/12 11/12/12 12/15/12 14/18/12
f 19/25/13 17/22/13 18/23/13 20/27/13
f 17/22/14 15/19/14 16/21/14 18/24/14
f 23/31/15 21/28/15 22/30/15 24/33/15
f 21/28/16 19/25/16 20/27/16 22/30/16
f 9/9/17 23/31/17 24/33/17 10/11/17
f 17/22/18 19/25/18 21/28/18 23/31/18 9/9/18 11/12/18 13/16/18 15/19/18
f 33/49/3 34/50/3 26/38/3 25/35/3
f 35/51/3 36/52/3 28/41/3 27/40/3
f 34/50/3 35/51/3 27/40/3 26/38/3
f 37/53/3 38/54/3 30/44/3 29/42/3
f 36/52/3 37/53/3 29/42/3 28/41/3
f 39/55/3 40/56/3 32/48/3 31/46/3
f 38/54/3 39/55/3 31/46/3 30/44/3
f 40/56/3 33/49/3 25/35/3 32/48/3
f 2/2/19 1/1/19 34/50/19 33/49/19
f 4/4/20 3/3/20 36/52/20 35/51/20
f 1/1/21 4/4/21 35/51/21 34/50/21
f 6/6/22 5/5/22 38/54/22 37/53/22
f 3/3/23 6/6/23 37/53/23 36/52/23
f 8/8/24 7/7/24 40/56/24 39/55/24
f 5/5/25 8/8/25 39/55/25 38/54/25
f 7/7/26 2/2/26 33/49/26 40/56/26
