# Blender 3.5.1
# www.blender.org
mtllib Newspaper.mtl
o Cube
v 1.000000 0.921698 -1.000000
v 1.000000 0.681698 -1.000000
v 0.700000 0.801698 -1.000000
v 1.000000 0.681698 1.000000
v 1.000000 0.921698 1.000000
v 0.700000 0.801698 1.000000
v -0.700000 1.201698 1.000000
v -1.000000 1.081698 1.000000
v -1.000000 1.081698 -1.000000
v -0.700000 1.201698 -1.000000
v 0.700000 0.401698 1.000000
v 1.001118 0.521664 0.997834
v 1.000000 0.521698 -1.000000
v 0.700000 0.401698 -1.000000
v -1.000000 0.521698 1.000000
v -0.700000 0.401698 1.000000
v -0.700000 0.401698 -1.000000
v -1.000000 0.521698 -1.000000
v 1.000000 1.081698 1.000000
v 0.700000 1.201698 1.000000
v 0.700000 1.201698 -1.000000
v 1.000000 1.081698 -1.000000
v 0.999254 0.684653 -1.000431
v 0.699254 0.804653 -1.000431
v -1.000000 0.921698 1.000000
v -1.000000 0.681698 1.000000
v -0.700000 0.801698 1.000000
v -1.000000 0.681698 -1.000000
v -1.000000 0.921698 -1.000000
v -0.700000 0.801698 -1.000000
vn 1.0000 0.0035 -0.0003
vn -0.0000 -0.0000 -1.0000
vn 0.0004 -0.0004 1.0000
vn -1.0000 -0.0000 -0.0000
vn -0.3714 0.9285 -0.0000
vn -0.0000 1.0000 -0.0000
vn 0.3707 -0.9287 -0.0001
vn -0.0000 -0.0000 1.0000
vn -0.3714 -0.9285 -0.0000
vn -0.0000 -1.0000 -0.0000
vn 0.3714 0.9285 -0.0000
vn 1.0000 -0.0000 -0.0000
vn -0.0640 -0.1600 -0.9850
vn 0.3678 0.9299 0.0006
vn 0.3670 -0.9302 -0.0008
vt 0.537500 0.500000
vt 0.462500 0.500000
vt 0.500000 0.462500
vt 0.000000 0.000000
vt 0.462500 0.750000
vt 0.537500 0.750000
vt 0.500000 0.787500
vt 0.625000 0.000000
vt 0.837500 0.750000
vt 0.625000 0.962500
vt 0.587500 0.000000
vt 0.587500 1.000000
vt 0.587500 0.250000
vt 0.625000 0.287500
vt 0.625000 0.250000
vt 0.837500 0.500000
vt 0.375000 0.787500
vt 0.337500 0.750000
vt 0.412500 0.750000
vt 0.412500 0.500000
vt 0.375000 0.462500
vt 0.337500 0.500000
vt 0.412500 1.000000
vt 0.125000 0.750000
vt 0.412500 0.000000
vt 0.375000 0.962500
vt 0.162500 0.750000
vt 0.375000 0.287500
vt 0.162500 0.500000
vt 0.125000 0.500000
vt 0.412500 0.250000
vt 0.587500 0.750000
vt 0.625000 0.787500
vt 0.662500 0.750000
vt 0.625000 0.462500
vt 0.662500 0.500000
vt 0.587500 0.500000
vt 0.462500 0.500000
vt 0.000000 0.000000
vt 0.500000 0.462500
vt 0.000000 0.000000
vt 0.537500 1.000000
vt 0.537500 0.000000
vt 0.462500 1.000000
vt 0.462500 0.000000
vt 0.500000 0.962500
vt 0.462500 0.250000
vt 0.537500 0.250000
vt 0.500000 0.287500
s 0
usemtl Material
f 13/20/1 2/2/1 4/5/1 12/19/1
f 30/49/2 29/48/2 9/13/2 10/14/2 21/35/2 22/37/2 1/1/2 3/3/2
f 11/17/3 12/19/3 4/5/3 6/7/3 27/46/3 26/44/3 15/23/3 16/26/3
f 25/43/4 8/11/4 9/13/4 29/48/4
f 17/28/2 18/31/2 28/47/2 30/49/2 3/3/2 2/2/2 13/20/2 14/21/2
f 7/8/5 10/15/5 9/13/5 8/11/5
f 21/36/6 10/16/6 7/9/6 20/34/6
f 11/18/7 14/22/7 13/20/7 12/19/7
f 6/7/8 5/6/8 19/32/8 20/33/8 7/10/8 8/12/8 25/42/8 27/46/8
f 17/29/9 16/27/9 15/24/9 18/30/9
f 17/29/10 14/22/10 11/18/10 16/27/10
f 21/36/11 20/34/11 19/32/11 22/37/11
f 1/1/12 22/37/12 19/32/12 5/6/12
f 2/2/13 3/3/13 24/40/13 23/38/13
f 6/7/14 4/5/14 23/39/14 3/4/14
f 5/6/15 6/7/15 24/41/15 1/1/15
f 27/46/5 30/49/5 28/47/5 26/44/5
f 27/46/9 25/43/9 29/48/9 30/49/9
f 15/25/4 26/45/4 28/47/4 18/31/4
