# Blender 3.5.1
# www.blender.org
mtllib Stop Sign.mtl
o Cylinder
v 0.000000 0.000000 -0.200000
v 0.000000 10.000000 -0.200000
v 0.039018 0.000000 -0.196157
v 0.039018 10.000000 -0.196157
v 0.076537 0.000000 -0.184776
v 0.076537 10.000000 -0.184776
v 0.111114 0.000000 -0.166294
v 0.111114 10.000000 -0.166294
v 0.141421 0.000000 -0.141421
v 0.141421 10.000000 -0.141421
v 0.166294 0.000000 -0.111114
v 0.166294 10.000000 -0.111114
v 0.184776 0.000000 -0.076537
v 0.184776 10.000000 -0.076537
v 0.196157 0.000000 -0.039018
v 0.196157 10.000000 -0.039018
v 0.200000 0.000000 0.000000
v 0.200000 10.000000 0.000000
v 0.196157 0.000000 0.039018
v 0.196157 10.000000 0.039018
v 0.184776 0.000000 0.076537
v 0.184776 10.000000 0.076537
v 0.166294 0.000000 0.111114
v 0.166294 10.000000 0.111114
v 0.141421 0.000000 0.141421
v 0.141421 10.000000 0.141421
v 0.111114 0.000000 0.166294
v 0.111114 10.000000 0.166294
v 0.076537 0.000000 0.184776
v 0.076537 10.000000 0.184776
v 0.039018 0.000000 0.196157
v 0.039018 10.000000 0.196157
v 0.000000 0.000000 0.200000
v 0.000000 10.000000 0.200000
v -0.039018 0.000000 0.196157
v -0.039018 10.000000 0.196157
v -0.076537 0.000000 0.184776
v -0.076537 10.000000 0.184776
v -0.111114 0.000000 0.166294
v -0.111114 10.000000 0.166294
v -0.141421 0.000000 0.141421
v -0.141421 10.000000 0.141421
v -0.166294 0.000000 0.111114
v -0.166294 10.000000 0.111114
v -0.184776 0.000000 0.076537
v -0.184776 10.000000 0.076537
v -0.196157 0.000000 0.039018
v -0.196157 10.000000 0.039018
v -0.200000 0.000000 0.000000
v -0.200000 10.000000 0.000000
v -0.196157 0.000000 -0.039018
v -0.196157 10.000000 -0.039018
v -0.184776 0.000000 -0.076537
v -0.184776 10.000000 -0.076537
v -0.166294 0.000000 -0.111114
v -0.166294 10.000000 -0.111114
v -0.141421 0.000000 -0.141421
v -0.141421 10.000000 -0.141421
v -0.111114 0.000000 -0.166294
v -0.111114 10.000000 -0.166294
v -0.076537 0.000000 -0.184776
v -0.076537 10.000000 -0.184776
v -0.039018 0.000000 -0.196157
v -0.039018 10.000000 -0.196157
v -0.300000 10.999999 -0.500000
v -0.300000 10.500000 -1.000000
v 0.300000 10.500000 -1.000000
v 0.300000 10.999999 -0.500000
v -0.300000 10.500000 1.000000
v -0.300000 10.999999 0.500000
v 0.300000 10.999999 0.500000
v 0.300000 10.500000 1.000000
v -0.300000 9.499999 -1.000000
v -0.300000 9.000000 -0.500000
v 0.300000 9.000000 -0.500000
v 0.300000 9.499999 -1.000000
v -0.300000 9.000000 0.500000
v -0.300000 9.499999 1.000000
v 0.300000 9.499999 1.000000
v 0.300000 9.000000 0.500000
vn 0.0980 -0.0000 -0.9952
vn 0.2903 -0.0000 -0.9569
vn 0.4714 -0.0000 -0.8819
vn 0.6344 -0.0000 -0.7730
vn 0.7730 -0.0000 -0.6344
vn 0.8819 -0.0000 -0.4714
vn 0.9569 -0.0000 -0.2903
vn 0.9952 -0.0000 -0.0980
vn 0.9952 -0.0000 0.0980
vn 0.9569 -0.0000 0.2903
vn 0.8819 -0.0000 0.4714
vn 0.7730 -0.0000 0.6344
vn 0.6344 -0.0000 0.7730
vn 0.4714 -0.0000 0.8819
vn 0.2903 -0.0000 0.9569
vn 0.0980 -0.0000 0.9952
vn -0.0980 -0.0000 0.9952
vn -0.2903 -0.0000 0.9569
vn -0.4714 -0.0000 0.8819
vn -0.6344 -0.0000 0.7730
vn -0.7730 -0.0000 0.6344
vn -0.8819 -0.0000 0.4714
vn -0.9569 -0.0000 0.2903
vn -0.9952 -0.0000 0.0980
vn -0.9952 -0.0000 -0.0980
vn -0.9569 -0.0000 -0.2903
vn -0.8819 -0.0000 -0.4714
vn -0.7730 -0.0000 -0.6344
vn -0.6344 -0.0000 -0.7730
vn -0.4714 -0.0000 -0.8819
vn -0.0000 1.0000 -0.0000
vn -0.2903 -0.0000 -0.9569
vn -0.0980 -0.0000 -0.9952
vn -0.0000 -1.0000 -0.0000
vn -0.0000 -0.0000 -1.0000
vn -1.0000 -0.0000 -0.0000
vn -0.0000 0.7071 -0.7071
vn -0.0000 0.7071 0.7071
vn -0.0000 -0.0000 1.0000
vn -0.0000 -0.7071 -0.7071
vn 1.0000 -0.0000 -0.0000
vn -0.0000 -0.7071 0.7071
vt 0.528588 0.000168
vt 0.528588 0.676446
vt 0.845431 0.791192
vt 0.866727 0.000168
vt 0.036228 0.639955
vt 0.866727 0.676446
vt 0.528588 0.021302
vt 0.833255 0.761796
vt 0.866727 0.021302
vt 0.018551 0.666411
vt 0.528588 0.042435
vt 0.815578 0.735341
vt 0.866727 0.042435
vt 0.006375 0.695807
vt 0.528588 0.063569
vt 0.793080 0.712842
vt 0.866727 0.063569
vt 0.000168 0.727013
vt 0.528588 0.084703
vt 0.766624 0.695165
vt 0.866727 0.084703
vt 0.000168 0.758831
vt 0.528588 0.105836
vt 0.737228 0.682989
vt 0.866727 0.105836
vt 0.006375 0.790037
vt 0.528588 0.126970
vt 0.706022 0.676782
vt 0.866727 0.126970
vt 0.018551 0.819433
vt 0.528588 0.148104
vt 0.674204 0.676782
vt 0.866727 0.148104
vt 0.036228 0.845888
vt 0.528588 0.169237
vt 0.642998 0.682989
vt 0.866727 0.169237
vt 0.058727 0.868387
vt 0.528588 0.190371
vt 0.613602 0.695165
vt 0.866727 0.190371
vt 0.085182 0.886064
vt 0.528588 0.211505
vt 0.587147 0.712842
vt 0.866727 0.211505
vt 0.114578 0.898240
vt 0.528588 0.232639
vt 0.564648 0.735341
vt 0.866727 0.232639
vt 0.145784 0.904447
vt 0.528588 0.253772
vt 0.546971 0.761796
vt 0.866727 0.253772
vt 0.177602 0.904447
vt 0.528588 0.274906
vt 0.534795 0.791192
vt 0.866727 0.274906
vt 0.208808 0.898240
vt 0.528588 0.296040
vt 0.528588 0.822398
vt 0.866727 0.296040
vt 0.238204 0.886064
vt 0.528588 0.317173
vt 0.528588 0.854216
vt 0.866727 0.317173
vt 0.264659 0.868387
vt 0.528588 0.338307
vt 0.534795 0.885422
vt 0.866727 0.338307
vt 0.287158 0.845888
vt 0.528588 0.359441
vt 0.546971 0.914818
vt 0.866727 0.359441
vt 0.304835 0.819433
vt 0.528588 0.380574
vt 0.564648 0.941273
vt 0.866727 0.380574
vt 0.317011 0.790037
vt 0.528588 0.401708
vt 0.587147 0.963772
vt 0.866727 0.401708
vt 0.323218 0.758831
vt 0.528588 0.422842
vt 0.613602 0.981449
vt 0.866727 0.422842
vt 0.323218 0.727013
vt 0.528588 0.443975
vt 0.642998 0.993625
vt 0.866727 0.443975
vt 0.317011 0.695807
vt 0.528588 0.465109
vt 0.674204 0.999832
vt 0.866727 0.465109
vt 0.304835 0.666411
vt 0.528588 0.486243
vt 0.706022 0.999832
vt 0.866727 0.486243
vt 0.287158 0.639955
vt 0.528588 0.507377
vt 0.737228 0.993625
vt 0.866727 0.507377
vt 0.264659 0.617457
vt 0.528588 0.528510
vt 0.766624 0.981449
vt 0.866727 0.528510
vt 0.238204 0.599780
vt 0.528588 0.549644
vt 0.793080 0.963772
vt 0.866727 0.549644
vt 0.208808 0.587604
vt 0.528588 0.570778
vt 0.815578 0.941273
vt 0.866727 0.570778
vt 0.177602 0.581397
vt 0.528588 0.591911
vt 0.833255 0.914818
vt 0.866727 0.591911
vt 0.145784 0.581397
vt 0.528588 0.613045
vt 0.845431 0.885422
vt 0.866727 0.613045
vt 0.114578 0.587604
vt 0.528588 0.634179
vt 0.851638 0.854216
vt 0.085182 0.599780
vt 0.866727 0.634179
vt 0.528588 0.655312
vt 0.851638 0.822398
vt 0.058727 0.617457
vt 0.866727 0.655312
vt 0.475444 0.165194
vt 0.184997 0.072779
vt 0.211402 0.105785
vt 0.178396 0.132189
vt 0.284013 0.264210
vt 0.317019 0.237806
vt 0.343423 0.270811
vt 0.072779 0.000168
vt 0.495247 0.528252
vt 0.528252 0.231205
vt 0.132189 0.006769
vt 0.528252 0.501848
vt 0.422636 0.369827
vt 0.396231 0.336822
vt 0.389630 0.396231
vt 0.112386 0.184997
vt 0.052976 0.449040
vt 0.052976 0.178396
vt 0.079381 0.482045
vt 0.211402 0.376428
vt 0.184997 0.343423
vt 0.218003 0.317019
vt 0.000168 0.112386
vt 0.132189 0.548056
vt 0.006769 0.052976
vt 0.429237 0.581061
vt 0.158593 0.581061
vt 0.323620 0.449040
vt 0.290614 0.475444
vt 0.264210 0.442439
s 0
usemtl Material
f 1/1/1 2/4/1 4/9/1 3/7/1
f 3/7/2 4/9/2 6/13/2 5/11/2
f 5/11/3 6/13/3 8/17/3 7/15/3
f 7/15/4 8/17/4 10/21/4 9/19/4
f 9/19/5 10/21/5 12/25/5 11/23/5
f 11/23/6 12/25/6 14/29/6 13/27/6
f 13/27/7 14/29/7 16/33/7 15/31/7
f 15/31/8 16/33/8 18/37/8 17/35/8
f 17/35/9 18/37/9 20/41/9 19/39/9
f 19/39/10 20/41/10 22/45/10 21/43/10
f 21/43/11 22/45/11 24/49/11 23/47/11
f 23/47/12 24/49/12 26/53/12 25/51/12
f 25/51/13 26/53/13 28/57/13 27/55/13
f 27/55/14 28/57/14 30/61/14 29/59/14
f 29/59/15 30/61/15 32/65/15 31/63/15
f 31/63/16 32/65/16 34/69/16 33/67/16
f 33/67/17 34/69/17 36/73/17 35/71/17
f 35/71/18 36/73/18 38/77/18 37/75/18
f 37/75/19 38/77/19 40/81/19 39/79/19
f 39/79/20 40/81/20 42/85/20 41/83/20
f 41/83/21 42/85/21 44/89/21 43/87/21
f 43/87/22 44/89/22 46/93/22 45/91/22
f 45/91/23 46/93/23 48/97/23 47/95/23
f 47/95/24 48/97/24 50/101/24 49/99/24
f 49/99/25 50/101/25 52/105/25 51/103/25
f 51/103/26 52/105/26 54/109/26 53/107/26
f 53/107/27 54/109/27 56/113/27 55/111/27
f 55/111/28 56/113/28 58/117/28 57/115/28
f 57/115/29 58/117/29 60/121/29 59/119/29
f 59/119/30 60/121/30 62/126/30 61/123/30
f 4/10/31 2/5/31 64/129/31 62/125/31 60/122/31 58/118/31 56/114/31 54/110/31 52/106/31 50/102/31 48/98/31 46/94/31 44/90/31 42/86/31 40/82/31 38/78/31 36/74/31 34/70/31 32/66/31 30/62/31 28/58/31 26/54/31 24/50/31 22/46/31 20/42/31 18/38/31 16/34/31 14/30/31 12/26/31 10/22/31 8/18/31 6/14/31
f 61/123/32 62/126/32 64/130/32 63/127/32
f 63/127/33 64/130/33 2/6/33 1/2/33
f 1/3/34 3/8/34 5/12/34 7/16/34 9/20/34 11/24/34 13/28/34 15/32/34 17/36/34 19/40/34 21/44/34 23/48/34 25/52/34 27/56/34 29/60/34 31/64/34 33/68/34 35/72/34 37/76/34 39/80/34 41/84/34 43/88/34 45/92/34 47/96/34 49/100/34 51/104/34 53/108/34 55/112/34 57/116/34 59/120/34 61/124/34 63/128/34
f 68/137/31 65/131/31 70/140/31 71/144/31
f 73/146/35 66/134/35 67/135/35 76/152/35
f 77/153/36 78/155/36 69/138/36 70/141/36 65/132/36 66/134/36 73/146/36 74/148/36
f 65/133/37 68/136/37 67/135/37 66/134/37
f 71/143/38 70/142/38 69/139/38 72/145/38
f 79/158/39 72/145/39 69/139/39 78/156/39
f 75/150/40 74/149/40 73/147/40 76/151/40
f 75/150/41 76/152/41 67/135/41 68/137/41 71/144/41 72/145/41 79/158/41 80/160/41
f 77/154/42 80/160/42 79/159/42 78/157/42
f 74/149/34 75/150/34 80/160/34 77/154/34
